<?xml version="1.0" encoding="UTF-8"?>
<svg width="40px" height="40px" viewBox="0 0 40 40" version="1.1" xmlns="http://www.w3.org/2000/svg" xmlns:xlink="http://www.w3.org/1999/xlink">
    <title>Stocklabs Logo Copy</title>
    <g id="📕-PDF" stroke="none" strokeWidth="1" fill="none" fillRule="evenodd">
        <g id="2.0-Landingpage-V2" transform="translate(-120.000000, -18.000000)">
            <g id="Stocklabs-Logo-Copy" transform="translate(120.000000, 18.000000)">
                <rect id="container" fill="#333439" opacity="0" x="0" y="0" width="40" height="40"></rect>
                <path d="M20.1158392,9 C21.2791624,9 22.2222222,9.94305978 22.2222222,11.106383 L22.2222222,28.893617 C22.2222222,30.0569402 21.2791624,31 20.1158392,31 L19.8841608,31 C18.7208376,31 17.7777778,30.0569402 17.7777778,28.893617 L17.7777778,11.106383 C17.7777778,9.94305978 18.7208376,9 19.8841608,9 L20.1158392,9 Z M12.3380615,12.9787234 C13.5013847,12.9787234 14.4444444,13.9217832 14.4444444,15.0851064 L14.4444444,24.9148936 C14.4444444,26.0782168 13.5013847,27.0212766 12.3380615,27.0212766 L12.106383,27.0212766 C10.9430598,27.0212766 10,26.0782168 10,24.9148936 L10,15.0851064 C10,13.9217832 10.9430598,12.9787234 12.106383,12.9787234 L12.3380615,12.9787234 Z M27.893617,12.9787234 C29.0569402,12.9787234 30,13.9217832 30,15.0851064 L30,24.9148936 C30,26.0782168 29.0569402,27.0212766 27.893617,27.0212766 L27.6619385,27.0212766 C26.4986153,27.0212766 25.5555556,26.0782168 25.5555556,24.9148936 L25.5555556,15.0851064 C25.5555556,13.9217832 26.4986153,12.9787234 27.6619385,12.9787234 L27.893617,12.9787234 Z" id="Stocklabs-Logo" fill="#FFFFFF"></path>
            </g>
        </g>
    </g>
</svg>